# xmcd
#
# Track frame offsets:
#	150
#	16583
#	32953
#	46676
#	68122
#	84728
#	102618
#	121336
#	140618
#	163049
#	178389
#	196515
#	216229
#	232237
#	249764
#	267869
#	285110
#	299871
#	315667
#	333996
#
# Disc length: 4712 seconds
#
# Revision: 1
# Processed by: cddbd v1.4PL0 Copyright (c) Steve Scherf et al.
# Submitted via: audiograbber 1.81.02
#
DISCID=27126614
DTITLE=Валерий Меладзе - Золотая серия
DYEAR=2002
DGENRE=
TTITLE0=Текила - любовь
TTITLE1=Сделай это прямо сейчас
TTITLE2=Мечта
TTITLE3=Красиво
TTITLE4=Рассветная
TTITLE5=Ночная лилия
TTITLE6=Актриса
TTITLE7=Не тревожь мне душу, скрипка
TTITLE8=Ночь накануне рождества
TTITLE9=Девушка из высшего общества
TTITLE10=Самбо белого мотылька
TTITLE11=Королева автострады
TTITLE12=Посредине лета
TTITLE13=Сэра
TTITLE14=Как ты красива сегодня
TTITLE15=А все могло быть иначе
TTITLE16=Говорила ты
TTITLE17=Шоу бизнес
TTITLE18=Не уходи
TTITLE19=Звездочка моя
EXTD=
EXTT0=
EXTT1=
EXTT2=
EXTT3=
EXTT4=
EXTT5=
EXTT6=
EXTT7=
EXTT8=
EXTT9=
EXTT10=
EXTT11=
EXTT12=
EXTT13=
EXTT14=
EXTT15=
EXTT16=
EXTT17=
EXTT18=
EXTT19=
PLAYORDER=
